<svg width="28" height="28" viewBox="0 0 28 28" fill="none" xmlns="http://www.w3.org/2000/svg">
<path d="M13.9987 25.6663V2.33301M8.16536 25.6663V19.833M8.16536 8.16634V2.33301M19.832 25.6663V19.833M19.832 8.16634V2.33301M2.33203 8.16634H25.6654M2.33203 19.833H25.6654M25.6654 20.0663V7.93301C25.6654 5.97282 25.6654 4.99273 25.2839 4.24404C24.9483 3.58547 24.4129 3.05004 23.7543 2.71448C23.0056 2.33301 22.0255 2.33301 20.0654 2.33301L7.93203 2.33301C5.97185 2.33301 4.99176 2.33301 4.24306 2.71449C3.5845 3.05004 3.04907 3.58547 2.71351 4.24404C2.33203 4.99273 2.33203 5.97283 2.33203 7.93301L2.33203 20.0663C2.33203 22.0265 2.33203 23.0066 2.71351 23.7553C3.04907 24.4139 3.5845 24.9493 4.24306 25.2849C4.99176 25.6663 5.97185 25.6663 7.93203 25.6663H20.0654C22.0255 25.6663 23.0056 25.6663 23.7543 25.2849C24.4129 24.9493 24.9483 24.4139 25.2839 23.7553C25.6654 23.0066 25.6654 22.0265 25.6654 20.0663Z" stroke="white" stroke-width="2" stroke-linecap="round" stroke-linejoin="round"/>
</svg>
