<svg width="28" height="28" viewBox="0 0 28 28" fill="none" xmlns="http://www.w3.org/2000/svg">
<path d="M19.8333 10.5L13.4933 16.84C13.2623 17.071 13.1468 17.1865 13.0136 17.2298C12.8964 17.2679 12.7702 17.2679 12.6531 17.2298C12.5199 17.1865 12.4044 17.071 12.1734 16.84L9.9933 14.66C9.76229 14.429 9.64678 14.3135 9.51359 14.2702C9.39643 14.2321 9.27023 14.2321 9.15307 14.2702C9.01988 14.3135 8.90438 14.429 8.67337 14.66L3.5 19.8333M19.8333 10.5H15.1667M19.8333 10.5V15.1667M9.1 24.5H18.9C20.8602 24.5 21.8403 24.5 22.589 24.1185C23.2475 23.783 23.783 23.2475 24.1185 22.589C24.5 21.8403 24.5 20.8602 24.5 18.9V9.1C24.5 7.13982 24.5 6.15972 24.1185 5.41103C23.783 4.75247 23.2475 4.21703 22.589 3.88148C21.8403 3.5 20.8602 3.5 18.9 3.5H9.1C7.13982 3.5 6.15972 3.5 5.41103 3.88148C4.75247 4.21703 4.21703 4.75247 3.88148 5.41103C3.5 6.15972 3.5 7.13982 3.5 9.1V18.9C3.5 20.8602 3.5 21.8403 3.88148 22.589C4.21703 23.2475 4.75247 23.783 5.41103 24.1185C6.15972 24.5 7.13982 24.5 9.1 24.5Z" stroke="white" stroke-width="2" stroke-linecap="round" stroke-linejoin="round"/>
</svg>
