<svg width="28" height="28" viewBox="0 0 28 28" fill="none" xmlns="http://www.w3.org/2000/svg">
<path d="M2.33203 16.3333L25.6654 16.3333M9.33203 24.5H18.6654M7.93203 21H20.0654C22.0255 21 23.0056 21 23.7543 20.6185C24.4129 20.283 24.9483 19.7475 25.2839 19.089C25.6654 18.3403 25.6654 17.3602 25.6654 15.4V9.1C25.6654 7.13982 25.6654 6.15972 25.2839 5.41103C24.9483 4.75247 24.4129 4.21703 23.7543 3.88148C23.0056 3.5 22.0255 3.5 20.0654 3.5H7.93203C5.97185 3.5 4.99176 3.5 4.24306 3.88148C3.5845 4.21703 3.04907 4.75247 2.71351 5.41103C2.33203 6.15972 2.33203 7.13982 2.33203 9.1V15.4C2.33203 17.3602 2.33203 18.3403 2.71351 19.089C3.04907 19.7475 3.5845 20.283 4.24306 20.6185C4.99176 21 5.97185 21 7.93203 21Z" stroke="white" stroke-width="2" stroke-linecap="round" stroke-linejoin="round"/>
</svg>
