<svg width="28" height="28" viewBox="0 0 28 28" fill="none" xmlns="http://www.w3.org/2000/svg">
<path d="M2.33203 13.9997C2.33203 20.443 7.55538 25.6663 13.9987 25.6663C15.9317 25.6663 17.4987 24.0993 17.4987 22.1663V21.583C17.4987 21.0412 17.4987 20.7703 17.5286 20.5428C17.7354 18.9723 18.9713 17.7364 20.5419 17.5296C20.7693 17.4997 21.0402 17.4997 21.582 17.4997H22.1654C24.0984 17.4997 25.6654 15.9327 25.6654 13.9997C25.6654 7.55635 20.442 2.33301 13.9987 2.33301C7.55538 2.33301 2.33203 7.55635 2.33203 13.9997Z" stroke="white" stroke-width="2" stroke-linecap="round" stroke-linejoin="round"/>
<path d="M8.16536 15.1663C8.8097 15.1663 9.33203 14.644 9.33203 13.9997C9.33203 13.3553 8.8097 12.833 8.16536 12.833C7.52103 12.833 6.9987 13.3553 6.9987 13.9997C6.9987 14.644 7.52103 15.1663 8.16536 15.1663Z" stroke="white" stroke-width="2" stroke-linecap="round" stroke-linejoin="round"/>
<path d="M18.6654 10.4997C19.3097 10.4997 19.832 9.97734 19.832 9.33301C19.832 8.68868 19.3097 8.16634 18.6654 8.16634C18.021 8.16634 17.4987 8.68868 17.4987 9.33301C17.4987 9.97734 18.021 10.4997 18.6654 10.4997Z" stroke="white" stroke-width="2" stroke-linecap="round" stroke-linejoin="round"/>
<path d="M11.6654 9.33301C12.3097 9.33301 12.832 8.81067 12.832 8.16634C12.832 7.52201 12.3097 6.99967 11.6654 6.99967C11.021 6.99967 10.4987 7.52201 10.4987 8.16634C10.4987 8.81067 11.021 9.33301 11.6654 9.33301Z" stroke="white" stroke-width="2" stroke-linecap="round" stroke-linejoin="round"/>
</svg>
