<svg width="29" height="36" viewBox="0 0 29 36" fill="none" xmlns="http://www.w3.org/2000/svg">
<path d="M14.4782 36C6.39949 36 0 31.1875 0 21.4119V3.73033C0 1.67012 1.67013 0 3.73034 0C5.95369 0 7.68954 1.92911 7.48632 4.14316C7.08548 8.51005 6.53644 15.5327 6.53644 21.2369C6.53644 26.1195 9.95092 29.2965 14.4782 29.2965C18.9826 29.2965 22.4636 26.1157 22.4636 21.2369C22.4636 15.5347 21.9144 8.5107 21.5136 4.14309C21.3104 1.92905 23.0463 0 25.2696 0C27.3298 0 29 1.67016 29 3.7304V21.4119C29 31.2064 22.5658 36 14.4782 36Z" fill="white"/>
<circle cx="14.5" cy="21.5" r="6.5" fill="white"/>
<circle cx="15" cy="4" r="4" fill="white"/>
</svg>
